<?xml version="1.0" encoding="UTF-8"?>
<svg width="16px" height="15px" viewBox="0 0 16 15" version="1.1" xmlns="http://www.w3.org/2000/svg" xmlns:xlink="http://www.w3.org/1999/xlink">
    <title>Icon</title>
    <g id="Page-1" stroke="none" stroke-width="1" fill="none" fill-rule="evenodd">
        <g id="Business-Lease" transform="translate(-1259.000000, -884.000000)" fill="#000000" fill-rule="nonzero">
            <g id="Lease-Deals" transform="translate(151.000000, 867.000000)">
                <g id="Filter" transform="translate(1048.000000, 0.000000)">
                    <g id="Icon" transform="translate(67.951161, 24.500000) rotate(-270.000000) translate(-67.951161, -24.500000) translate(61.000000, 17.000000)">
                        <path d="M2.65232168,5.43214286 L2.65232168,0 L1.58089311,0 L1.58089311,5.43214286 C0.647700069,5.68574883 -9.51619735e-16,6.53296058 -9.51619735e-16,7.5 C-9.51619735e-16,8.46703942 0.647700069,9.31425117 1.58089311,9.56785714 L1.58089311,15 L2.65232168,15 L2.65232168,9.56785714 C3.58551473,9.31425117 4.2332148,8.46703942 4.2332148,7.5 C4.2332148,6.53296058 3.58551473,5.68574883 2.65232168,5.43214286 Z M2.1166074,8.57142857 C1.52487374,8.57142857 1.04517883,8.09173366 1.04517883,7.5 C1.04517883,6.90826634 1.52487374,6.42857143 2.1166074,6.42857143 C2.70834106,6.42857143 3.18803597,6.90826634 3.18803597,7.5 C3.18803597,8.09173366 2.70834106,8.57142857 2.1166074,8.57142857 Z" id="Shape"></path>
                        <path d="M7.47375026,9.71785714 L7.47375026,0 L6.40232168,0 L6.40232168,9.71785714 C5.46912864,9.97146312 4.82142857,10.8186749 4.82142857,11.7857143 C4.82142857,12.7527537 5.46912864,13.5999655 6.40232168,13.8535714 L6.40232168,15 L7.47375026,15 L7.47375026,13.8535714 C8.4069433,13.5999655 9.05464337,12.7527537 9.05464337,11.7857143 C9.05464337,10.8186749 8.4069433,9.97146312 7.47375026,9.71785714 Z M6.93803597,12.8571429 C6.34630231,12.8571429 5.8666074,12.3774479 5.8666074,11.7857143 C5.8666074,11.1939806 6.34630231,10.7142857 6.93803597,10.7142857 C7.52976963,10.7142857 8.00946454,11.1939806 8.00946454,11.7857143 C8.00946454,12.3774479 7.52976963,12.8571429 6.93803597,12.8571429 Z" id="Shape"></path>
                        <path d="M13.9023217,3.21428571 C13.8991571,2.23973733 13.2387875,1.39006181 12.2951788,1.14642857 L12.2951788,0 L11.2237503,0 L11.2237503,1.14642857 C10.2905572,1.40003455 9.64285714,2.24724629 9.64285714,3.21428571 C9.64285714,4.18132514 10.2905572,5.02853688 11.2237503,5.28214286 L11.2237503,15 L12.2951788,15 L12.2951788,5.28214286 C13.2387875,5.03850961 13.8991571,4.1888341 13.9023217,3.21428571 Z M11.7594645,4.28571429 C11.1677309,4.28571429 10.688036,3.80601937 10.688036,3.21428571 C10.688036,2.62255205 11.1677309,2.14285714 11.7594645,2.14285714 C12.3511982,2.14285714 12.8308931,2.62255205 12.8308931,3.21428571 C12.8308931,3.49844624 12.7180108,3.77096829 12.5170789,3.97190012 C12.3161471,4.17283196 12.0436251,4.28571429 11.7594645,4.28571429 Z" id="Shape"></path>
                    </g>
                </g>
            </g>
        </g>
    </g>
</svg>