<?xml version="1.0" encoding="UTF-8"?>
<svg width="154px" height="47px" viewBox="0 0 154 47" version="1.1" xmlns="http://www.w3.org/2000/svg" xmlns:xlink="http://www.w3.org/1999/xlink">
    <title>Google Play</title>
    <defs>
        <path d="M0,1.6875 L0,26.55 C0,27.225225 0.225,27.7875 0.5625,28.125 L0.5625,28.125 L0.675,28.237725 L14.625,14.287725 L14.625,14.0625 L0.45,0.112725 C0.1125,0.45 0,1.0125 0,1.6875" id="path-1"></path>
        <path d="M0.1125,4.8375 L0.1125,5.175 L4.725,9.7875 L10.35,6.75 C11.925,5.85 11.925,4.3875 10.35,3.487275 L10.35,3.487275 L4.8375,0.3375 L4.725,0.224775 L0.1125,4.8375 Z" id="path-3"></path>
        <path d="M0,14.062725 C0.5625,14.625 1.35,14.625 2.3625,14.175 L2.3625,14.175 L18.7875,4.725 L14.0625,0 L0,14.062725 Z" id="path-5"></path>
        <linearGradient x1="86.3203586%" y1="30.7760679%" x2="-49.9550734%" y2="135.949406%" id="linearGradient-7">
            <stop stop-color="#FF3A44" offset="0%"></stop>
            <stop stop-color="#C31162" offset="100%"></stop>
        </linearGradient>
        <path d="M0,0.675 L14.0625,14.625 L18.7875,9.9 L2.3625,0.562725 C1.9062,0.30915 1.4958,0.192824781 1.131075,0.192824781 L1.131075,0.192824781 C0.686025,0.1926 0.30915,0.36585 0,0.675" id="path-8"></path>
    </defs>
    <g id="Page-1" stroke="none" stroke-width="1" fill="none" fill-rule="evenodd">
        <g id="Business-Lease" transform="translate(-315.000000, -3140.000000)">
            <g id="Footer" transform="translate(0.000000, 2986.000000)">
                <g id="Company" transform="translate(143.000000, 41.000000)">
                    <g id="Google-Play" transform="translate(173.000000, 114.000000)">
                        <rect id="Rectangle" stroke="#CFCFCF" x="0" y="0" width="152.25" height="45" rx="8"></rect>
                        <g id="rectange" transform="translate(46.237500, 7.762545)">
                            <path d="M38.8125,6.8625 L38.8125,0.1125 L39.825,0.1125 L43.0875,5.4 L43.0875,0.1125 L43.9875,0.1125 L43.9875,6.8625 L43.0875,6.8625 L39.6,1.35 L39.6,6.8625 L38.8125,6.8625 Z M32.2875,5.4 C32.7375,5.85 33.4125,6.1875 34.0875,6.1875 C34.7625,6.1875 35.4375,5.9625 35.8875,5.4 C36.3375,4.95 36.675,4.275 36.675,3.4875 C36.675,2.7 36.45,2.025 35.8875,1.575 C35.4375,1.125 34.7625,0.7875 34.0875,0.7875 C33.4125,0.7875 32.7375,1.0125 32.2875,1.575 C31.8375,2.025 31.5,2.7 31.5,3.4875 C31.5,4.275 31.725,4.95 32.2875,5.4 L32.2875,5.4 Z M36.5625,5.9625 C35.8875,6.6375 35.1,6.975 34.0875,6.975 C33.075,6.975 32.2875,6.6375 31.6125,5.9625 C30.9375,5.2875 30.6,4.5 30.6,3.4875 C30.6,2.475 30.9375,1.6875 31.6125,1.0125 C32.2875,0.3375 33.075,0 34.0875,0 C35.1,0 35.8875,0.3375 36.5625,1.0125 C37.2375,1.6875 37.575,2.475 37.575,3.4875 C37.575,4.5 37.2375,5.2875 36.5625,5.9625 L36.5625,5.9625 Z M25.875,6.8625 L24.975,6.8625 L24.975,0.9 L23.0625,0.9 L23.0625,0.1125 L27.675,0.1125 L27.675,0.9 L25.7625,0.9 L25.7625,6.8625 L25.875,6.8625 Z M21.15,6.8625 L22.05,6.8625 L22.05,0.1125 L21.15,0.1125 L21.15,6.8625 Z M15.975,6.8625 L15.075,6.8625 L15.075,0.9 L13.1625,0.9 L13.1625,0.1125 L17.8875,0.1125 L17.8875,0.9 L15.975,0.9 L15.975,6.8625 Z M12.2625,0.9 L9.225,0.9 L9.225,3.0375 L12.0375,3.0375 L12.0375,3.825 L9.225,3.825 L9.225,5.9625 L12.2625,5.9625 L12.2625,6.8625 L8.325,6.8625 L8.325,0.1125 L12.2625,0.1125 L12.2625,0.9 Z M7.0875,3.7125 C7.0875,4.6125 6.8625,5.4 6.3,5.9625 C5.625,6.6375 4.8375,6.975 3.825,6.975 C2.8125,6.975 2.025,6.6375 1.35,5.9625 C0.675,5.2875 0.3375,4.5 0.3375,3.4875 C0.3375,2.475 0.675,1.6875 1.35,1.0125 C2.025,0.3375 2.8125,0 3.825,0 C4.275,0 4.725,0.1125 5.175,0.3375 C5.625,0.5625 5.9625,0.7875 6.1875,1.125 L5.625,1.6875 C5.175,1.125 4.6125,0.9 3.825,0.9 C3.15,0.9 2.475,1.125 2.025,1.6875 C1.4625,2.1375 1.2375,2.8125 1.2375,3.6 C1.2375,4.3875 1.4625,5.0625 2.025,5.5125 C2.5875,5.9625 3.15,6.3 3.825,6.3 C4.6125,6.3 5.175,6.075 5.7375,5.5125 C6.075,5.175 6.3,4.725 6.3,4.1625 L3.825,4.1625 L3.825,3.2625 L7.0875,3.2625 L7.0875,3.7125 Z" id="Fill-4" fill="#FFFFFF"></path>
                            <path d="M38.8125,6.8625 L38.8125,0.1125 L39.825,0.1125 L43.0875,5.4 L43.0875,0.1125 L43.9875,0.1125 L43.9875,6.8625 L43.0875,6.8625 L39.6,1.35 L39.6,6.8625 L38.8125,6.8625 Z M32.2875,5.4 C32.7375,5.85 33.4125,6.1875 34.0875,6.1875 C34.7625,6.1875 35.4375,5.9625 35.8875,5.4 C36.3375,4.95 36.675,4.275 36.675,3.4875 C36.675,2.7 36.45,2.025 35.8875,1.575 C35.4375,1.125 34.7625,0.7875 34.0875,0.7875 C33.4125,0.7875 32.7375,1.0125 32.2875,1.575 C31.8375,2.025 31.5,2.7 31.5,3.4875 C31.5,4.275 31.725,4.95 32.2875,5.4 Z M36.5625,5.9625 C35.8875,6.6375 35.1,6.975 34.0875,6.975 C33.075,6.975 32.2875,6.6375 31.6125,5.9625 C30.9375,5.2875 30.6,4.5 30.6,3.4875 C30.6,2.475 30.9375,1.6875 31.6125,1.0125 C32.2875,0.3375 33.075,0 34.0875,0 C35.1,0 35.8875,0.3375 36.5625,1.0125 C37.2375,1.6875 37.575,2.475 37.575,3.4875 C37.575,4.5 37.2375,5.2875 36.5625,5.9625 Z M25.875,6.8625 L24.975,6.8625 L24.975,0.9 L23.0625,0.9 L23.0625,0.1125 L27.675,0.1125 L27.675,0.9 L25.7625,0.9 L25.7625,6.8625 L25.875,6.8625 Z M21.15,6.8625 L22.05,6.8625 L22.05,0.1125 L21.15,0.1125 L21.15,6.8625 Z M15.975,6.8625 L15.075,6.8625 L15.075,0.9 L13.1625,0.9 L13.1625,0.1125 L17.8875,0.1125 L17.8875,0.9 L15.975,0.9 L15.975,6.8625 Z M12.2625,0.9 L9.225,0.9 L9.225,3.0375 L12.0375,3.0375 L12.0375,3.825 L9.225,3.825 L9.225,5.9625 L12.2625,5.9625 L12.2625,6.8625 L8.325,6.8625 L8.325,0.1125 L12.2625,0.1125 L12.2625,0.9 Z M7.0875,3.7125 C7.0875,4.6125 6.8625,5.4 6.3,5.9625 C5.625,6.6375 4.8375,6.975 3.825,6.975 C2.8125,6.975 2.025,6.6375 1.35,5.9625 C0.675,5.2875 0.3375,4.5 0.3375,3.4875 C0.3375,2.475 0.675,1.6875 1.35,1.0125 C2.025,0.3375 2.8125,0 3.825,0 C4.275,0 4.725,0.1125 5.175,0.3375 C5.625,0.5625 5.9625,0.7875 6.1875,1.125 L5.625,1.6875 C5.175,1.125 4.6125,0.9 3.825,0.9 C3.15,0.9 2.475,1.125 2.025,1.6875 C1.4625,2.1375 1.2375,2.8125 1.2375,3.6 C1.2375,4.3875 1.4625,5.0625 2.025,5.5125 C2.5875,5.9625 3.15,6.3 3.825,6.3 C4.6125,6.3 5.175,6.075 5.7375,5.5125 C6.075,5.175 6.3,4.725 6.3,4.1625 L3.825,4.1625 L3.825,3.2625 L7.0875,3.2625 L7.0875,3.7125 Z" id="Stroke-6" stroke="#FFFFFF" stroke-width="0.054"></path>
                            <path d="M74.025,25.987455 L76.1625,25.987455 L76.1625,11.924955 L74.025,11.924955 L74.025,25.987455 Z M92.925,16.987455 L90.5625,23.062455 L90.45,23.062455 L87.975,16.987455 L85.725,16.987455 L89.4375,25.537455 L87.3,30.262455 L89.4375,30.262455 L95.175,16.987455 L92.925,16.987455 Z M81.1125,24.412455 C80.4375,24.412455 79.425,24.074955 79.425,23.174955 C79.425,22.049955 80.6625,21.712455 81.675,21.712455 C82.575,21.712455 83.025,21.937455 83.5875,22.162455 C83.3625,23.512455 82.2375,24.412455 81.1125,24.412455 L81.1125,24.412455 Z M81.3375,16.649955 C79.7625,16.649955 78.1875,17.324955 77.625,18.787455 L79.5375,19.574955 C79.9875,18.787455 80.6625,18.562455 81.45,18.562455 C82.575,18.562455 83.5875,19.237455 83.7,20.362455 L83.7,20.474955 C83.3625,20.249955 82.4625,19.912455 81.5625,19.912455 C79.5375,19.912455 77.5125,21.037455 77.5125,23.062455 C77.5125,24.974955 79.2,26.212455 81,26.212455 C82.4625,26.212455 83.1375,25.537455 83.7,24.862455 L83.8125,24.862455 L83.8125,25.987455 L85.8375,25.987455 L85.8375,20.587455 C85.6125,18.112455 83.7,16.649955 81.3375,16.649955 L81.3375,16.649955 Z M68.4,18.674955 L65.3625,18.674955 L65.3625,13.837455 L68.4,13.837455 C69.975,13.837455 70.875,15.187455 70.875,16.199955 C70.7625,17.437455 69.8625,18.674955 68.4,18.674955 L68.4,18.674955 Z M68.2875,11.924955 L63.225,11.924955 L63.225,25.987455 L65.3625,25.987455 L65.3625,20.699955 L68.2875,20.699955 C70.65,20.699955 72.9,19.012455 72.9,16.312455 C72.9,13.612455 70.65,11.924955 68.2875,11.924955 L68.2875,11.924955 Z M40.8375,24.412455 C39.375,24.412455 38.1375,23.174955 38.1375,21.487455 C38.1375,19.799955 39.375,18.562455 40.8375,18.562455 C42.3,18.562455 43.425,19.799955 43.425,21.487455 C43.425,23.174955 42.3,24.412455 40.8375,24.412455 L40.8375,24.412455 Z M43.3125,17.774955 C42.75,17.212455 41.85,16.649955 40.725,16.649955 C38.3625,16.649955 36.1125,18.787455 36.1125,21.487455 C36.1125,24.187455 38.25,26.212455 40.725,26.212455 C41.85,26.212455 42.75,25.649955 43.2,25.087455 L43.3125,25.087455 L43.3125,25.762455 C43.3125,27.562455 42.3,28.574955 40.725,28.574955 C39.4875,28.574955 38.5875,27.674955 38.3625,26.887455 L36.5625,27.674955 C37.125,28.912455 38.475,30.487455 40.8375,30.487455 C43.3125,30.487455 45.3375,29.024955 45.3375,25.537455 L45.3375,16.987455 L43.3125,16.987455 L43.3125,17.774955 Z M46.6875,25.987455 L48.825,25.987455 L48.825,11.924955 L46.6875,11.924955 L46.6875,25.987455 Z M51.975,21.374955 C51.975,19.574955 53.4375,18.562455 54.45,18.562455 C55.2375,18.562455 56.025,19.012455 56.25,19.574955 L51.975,21.374955 Z M58.5,19.799955 C58.05,18.674955 56.925,16.762455 54.45,16.762455 C51.975,16.762455 49.95,18.674955 49.95,21.599955 C49.95,24.299955 51.975,26.437455 54.675,26.437455 C56.8125,26.437455 58.1625,25.087455 58.6125,24.299955 L57.0375,23.174955 C56.475,23.962455 55.8,24.524955 54.675,24.524955 C53.55,24.524955 52.875,24.074955 52.3125,23.062455 L58.725,20.362455 L58.5,19.799955 Z M7.425,18.224955 L7.425,20.249955 L12.2625,20.249955 C12.15,21.374955 11.7,22.274955 11.1375,22.837455 C10.4625,23.512455 9.3375,24.299955 7.425,24.299955 C4.3875,24.299955 2.1375,21.937455 2.1375,18.899955 C2.1375,15.862455 4.5,13.499955 7.425,13.499955 C9,13.499955 10.2375,14.174955 11.1375,14.962455 L12.6,13.499955 C11.3625,12.374955 9.7875,11.474955 7.5375,11.474955 C3.4875,11.474955 0,14.849955 0,18.899955 C0,22.949955 3.4875,26.324955 7.5375,26.324955 C9.7875,26.324955 11.3625,25.649955 12.7125,24.187455 C14.0625,22.837455 14.5125,20.924955 14.5125,19.462455 C14.5125,19.012455 14.5125,18.562455 14.4,18.224955 L7.425,18.224955 Z M19.9125,24.412455 C18.45,24.412455 17.2125,23.174955 17.2125,21.487455 C17.2125,19.799955 18.45,18.562455 19.9125,18.562455 C21.375,18.562455 22.6125,19.687455 22.6125,21.487455 C22.6125,23.174955 21.375,24.412455 19.9125,24.412455 L19.9125,24.412455 Z M19.9125,16.762455 C17.2125,16.762455 15.075,18.787455 15.075,21.599955 C15.075,24.299955 17.2125,26.437455 19.9125,26.437455 C22.6125,26.437455 24.75,24.412455 24.75,21.599955 C24.75,18.674955 22.6125,16.762455 19.9125,16.762455 L19.9125,16.762455 Z M30.375,24.412455 C28.9125,24.412455 27.675,23.174955 27.675,21.487455 C27.675,19.799955 28.9125,18.562455 30.375,18.562455 C31.8375,18.562455 33.075,19.687455 33.075,21.487455 C33.075,23.174955 31.8375,24.412455 30.375,24.412455 L30.375,24.412455 Z M30.375,16.762455 C27.675,16.762455 25.5375,18.787455 25.5375,21.599955 C25.5375,24.299955 27.675,26.437455 30.375,26.437455 C33.075,26.437455 35.2125,24.412455 35.2125,21.599955 C35.2125,18.674955 33.075,16.762455 30.375,16.762455 L30.375,16.762455 Z" id="Fill-8" fill="#FFFFFF"></path>
                        </g>
                        <g id="Group-13" transform="translate(11.250000, 8.325000)">
                            <mask id="mask-2" fill="white">
                                <use xlink:href="#path-1"></use>
                            </mask>
                            <g id="Clip-12"></g>
                            <path d="M0,1.6875 L0,26.55 C0,27.225225 0.225,27.7875 0.5625,28.125 L0.5625,28.125 L0.675,28.237725 L14.625,14.287725 L14.625,14.0625 L0.45,0.112725 C0.1125,0.45 0,1.0125 0,1.6875" id="Fill-11" fill="#32BBFF" mask="url(#mask-2)"></path>
                        </g>
                        <g id="Group-16" transform="translate(25.650000, 17.550000)">
                            <mask id="mask-4" fill="white">
                                <use xlink:href="#path-3"></use>
                            </mask>
                            <g id="Clip-15"></g>
                            <path d="M0.1125,4.8375 L0.1125,5.175 L4.725,9.7875 L10.35,6.75 C11.925,5.85 11.925,4.3875 10.35,3.487275 L10.35,3.487275 L4.8375,0.3375 L4.725,0.224775 L0.1125,4.8375 Z" id="Fill-14" fill="#FFD500" mask="url(#mask-4)"></path>
                        </g>
                        <g id="Group-19" transform="translate(11.700000, 22.500000)">
                            <mask id="mask-6" fill="white">
                                <use xlink:href="#path-5"></use>
                            </mask>
                            <g id="Clip-18"></g>
                            <path d="M0,14.062725 C0.5625,14.625 1.35,14.625 2.3625,14.175 L2.3625,14.175 L18.7875,4.725 L14.0625,0 L0,14.062725 Z" id="Fill-17" fill="url(#linearGradient-7)" mask="url(#mask-6)"></path>
                        </g>
                        <g id="Group-22" transform="translate(11.700000, 7.875000)">
                            <mask id="mask-9" fill="white">
                                <use xlink:href="#path-8"></use>
                            </mask>
                            <g id="Clip-21"></g>
                            <path d="M0,0.675 L14.0625,14.625 L18.7875,9.9 L2.3625,0.562725 C1.9062,0.30915 1.4958,0.192824781 1.131075,0.192824781 L1.131075,0.192824781 C0.686025,0.1926 0.30915,0.36585 0,0.675" id="Fill-20" fill="#29CC5E" mask="url(#mask-9)"></path>
                        </g>
                        <g id="Group-29" transform="translate(11.250000, 7.875000)">
                            <path d="M19.125,19.237545 L2.8125,28.462545 C1.9125,29.025045 1.125,28.912545 0.5625,28.462545 L0.45,28.575045 L0.5625,28.687545 C1.125,29.137545 1.9125,29.250045 2.8125,28.687545 L19.125,19.237545 Z" id="Fill-23" fill="#000000"></path>
                            <path d="M24.75,16.087455 L19.125,19.237455 L19.2375,19.349955 L24.75,16.199955 C25.5375,15.749955 25.875,15.187455 25.875,14.624955 C25.875,15.187455 25.425,15.637455 24.75,16.087455 L24.75,16.087455 Z M0.45,28.462455 C0.1125,28.124955 0,27.562455 0,26.887455 L0,26.999955 C0,27.674955 0.225,28.237455 0.5625,28.574955 L0.5625,28.462455 L0.45,28.462455 Z" id="Fill-25" fill="#000000"></path>
                            <path d="M2.8125,0.674955 L24.75,13.162455 C25.425,13.612455 25.875,14.062455 25.875,14.624955 C25.875,14.062455 25.5375,13.499955 24.75,13.049955 L2.8125,0.562455 C1.2375,-0.337545 0,0.337455 0,2.137455 L0,2.249955 C0,0.562455 1.2375,-0.225045 2.8125,0.674955" id="Fill-27" fill="#FFFFFF"></path>
                        </g>
                    </g>
                </g>
            </g>
        </g>
    </g>
</svg>