<?xml version="1.0" encoding="UTF-8"?>
<svg width="154px" height="47px" viewBox="0 0 154 47" version="1.1" xmlns="http://www.w3.org/2000/svg" xmlns:xlink="http://www.w3.org/1999/xlink">
    <title>iTunes Store</title>
    <g id="Page-1" stroke="none" stroke-width="1" fill="none" fill-rule="evenodd">
        <g id="Business-Lease" transform="translate(-145.000000, -3140.000000)">
            <g id="Footer" transform="translate(0.000000, 2986.000000)">
                <g id="Company" transform="translate(143.000000, 41.000000)">
                    <g id="iTunes-Store" transform="translate(3.000000, 114.000000)">
                        <rect id="Rectangle" stroke="#CFCFCF" x="0" y="0" width="152.25" height="45" rx="8"></rect>
                        <path d="M38.5695225,21.474045 C38.5425225,18.252045 41.2065225,16.686045 41.3235225,16.614045 C39.8115225,14.418045 37.4715225,14.112045 36.6525225,14.085045 C34.6905225,13.878045 32.7825225,15.264045 31.7835225,15.264045 C30.7665225,15.264045 29.2185225,14.112045 27.5625225,14.139045 C25.4295225,14.175045 23.4225225,15.408045 22.3335225,17.334045 C20.0745225,21.249045 21.7575225,27.009045 23.9265225,30.177045 C25.0155225,31.725045 26.2755225,33.462045 27.9405225,33.399045 C29.5605225,33.336045 30.1725225,32.364045 32.1255225,32.364045 C34.0695225,32.364045 34.6365225,33.399045 36.3285225,33.363045 C38.0745225,33.336045 39.1635225,31.806045 40.2165225,30.240045 C41.4675225,28.467045 41.9715225,26.712045 41.9895225,26.622045 C41.9445225,26.604045 38.6055225,25.326045 38.5695225,21.474045" id="Fill-4" fill="#FFFFFF"></path>
                        <path d="M35.3744775,12.0060225 C36.2474775,10.9170225 36.8414775,9.4320225 36.6794775,7.9200225 C35.4194775,7.9740225 33.8354775,8.7930225 32.9264775,9.8640225 C32.1254775,10.8090225 31.4054775,12.3480225 31.5854775,13.7970225 C33.0074775,13.9050225 34.4654775,13.0770225 35.3744775,12.0060225" id="Fill-6" fill="#FFFFFF"></path>
                        <path d="M58.198455,27.63 L57.073455,24.165 C56.956455,23.805 56.731455,22.977 56.407455,21.663 L56.362455,21.663 C56.227455,22.23 56.020455,23.067 55.732455,24.165 L54.625455,27.63 L58.198455,27.63 Z M62.077455,33.174 L59.809455,33.174 L58.567455,29.268 L54.247455,29.268 L53.068455,33.174 L50.863455,33.174 L55.138455,19.881 L57.784455,19.881 L62.077455,33.174 Z" id="Fill-8" fill="#FFFFFF"></path>
                        <path d="M70.897455,28.341045 C70.897455,27.405045 70.690455,26.640045 70.267455,26.037045 C69.808455,25.407045 69.187455,25.092045 68.413455,25.092045 C67.891455,25.092045 67.414455,25.272045 66.982455,25.614045 C66.559455,25.965045 66.271455,26.415045 66.145455,26.982045 C66.082455,27.243045 66.046455,27.459045 66.046455,27.630045 L66.046455,29.232045 C66.046455,29.925045 66.262455,30.519045 66.685455,30.996045 C67.108455,31.473045 67.666455,31.716045 68.350455,31.716045 C69.151455,31.716045 69.772455,31.401045 70.222455,30.789045 C70.672455,30.168045 70.897455,29.358045 70.897455,28.341045 M73.066455,28.269045 C73.066455,29.898045 72.625455,31.185045 71.734455,32.130045 C70.942455,32.976045 69.952455,33.390045 68.782455,33.390045 C67.513455,33.390045 66.604455,32.940045 66.046455,32.031045 L66.046455,37.062045 L63.913455,37.062045 L63.913455,26.739045 C63.913455,25.713045 63.886455,24.669045 63.832455,23.589045 L65.704455,23.589045 L65.821455,25.110045 L65.857455,25.110045 C66.568455,23.967045 67.648455,23.391045 69.088455,23.391045 C70.222455,23.391045 71.158455,23.841045 71.914455,24.732045 C72.688455,25.632045 73.066455,26.802045 73.066455,28.269045" id="Fill-10" fill="#FFFFFF"></path>
                        <path d="M81.913545,28.341045 C81.913545,27.405045 81.706545,26.640045 81.283545,26.037045 C80.824545,25.407045 80.203545,25.092045 79.429545,25.092045 C78.907545,25.092045 78.430545,25.272045 77.998545,25.614045 C77.575545,25.965045 77.296545,26.415045 77.161545,26.982045 C77.098545,27.243045 77.062545,27.459045 77.062545,27.630045 L77.062545,29.232045 C77.062545,29.925045 77.278545,30.519045 77.701545,30.996045 C78.124545,31.473045 78.682545,31.716045 79.366545,31.716045 C80.167545,31.716045 80.797545,31.401045 81.238545,30.789045 C81.697545,30.168045 81.913545,29.358045 81.913545,28.341045 M84.082545,28.269045 C84.082545,29.898045 83.641545,31.185045 82.750545,32.130045 C81.958545,32.976045 80.968545,33.390045 79.798545,33.390045 C78.529545,33.390045 77.620545,32.940045 77.062545,32.031045 L77.062545,37.062045 L74.929545,37.062045 L74.929545,26.739045 C74.929545,25.713045 74.902545,24.669045 74.848545,23.589045 L76.720545,23.589045 L76.837545,25.110045 L76.873545,25.110045 C77.584545,23.967045 78.664545,23.391045 80.104545,23.391045 C81.238545,23.391045 82.174545,23.841045 82.930545,24.732045 C83.704545,25.632045 84.082545,26.802045 84.082545,28.269045" id="Fill-12" fill="#FFFFFF"></path>
                        <path d="M96.412545,29.4480225 C96.412545,30.5820225 96.016545,31.5000225 95.233545,32.2110225 C94.369545,32.9850225 93.163545,33.3720225 91.615545,33.3720225 C90.184545,33.3720225 89.041545,33.0930225 88.177545,32.5440225 L88.672545,30.7710225 C89.608545,31.3200225 90.634545,31.5990225 91.750545,31.5990225 C92.551545,31.5990225 93.181545,31.4190225 93.622545,31.0590225 C94.072545,30.6990225 94.297545,30.2130225 94.297545,29.6100225 C94.297545,29.0700225 94.108545,28.6200225 93.748545,28.2510225 C93.379545,27.8820225 92.767545,27.5400225 91.912545,27.2250225 C89.563545,26.3520225 88.402545,25.0830225 88.402545,23.4180225 C88.402545,22.3290225 88.816545,21.4380225 89.635545,20.7360225 C90.454545,20.0430225 91.543545,19.6920225 92.902545,19.6920225 C94.108545,19.6920225 95.116545,19.8990225 95.917545,20.3220225 L95.377545,22.0500225 C94.621545,21.6450225 93.775545,21.4380225 92.821545,21.4380225 C92.074545,21.4380225 91.480545,21.6270225 91.057545,21.9870225 C90.706545,22.3200225 90.526545,22.7160225 90.526545,23.1930225 C90.526545,23.7150225 90.733545,24.1560225 91.138545,24.4890225 C91.489545,24.8040225 92.137545,25.1460225 93.073545,25.5150225 C94.216545,25.9740225 95.053545,26.5140225 95.593545,27.1350225 C96.142545,27.7560225 96.412545,28.5300225 96.412545,29.4480225" id="Fill-14" fill="#FFFFFF"></path>
                        <path d="M103.4685,25.191045 L101.1195,25.191045 L101.1195,29.844045 C101.1195,31.023045 101.5335,31.617045 102.3615,31.617045 C102.7395,31.617045 103.0545,31.581045 103.3065,31.518045 L103.3695,33.138045 C102.9465,33.291045 102.3975,33.372045 101.7135,33.372045 C100.8675,33.372045 100.2195,33.111045 99.7425,32.598045 C99.2655,32.085045 99.0315,31.221045 99.0315,30.015045 L99.0315,25.182045 L97.6365,25.182045 L97.6365,23.589045 L99.0315,23.589045 L99.0315,21.834045 L101.1195,21.204045 L101.1195,23.589045 L103.4685,23.589045 L103.4685,25.191045" id="Fill-16" fill="#FFFFFF"></path>
                        <path d="M111.829545,28.349955 C111.829545,27.467955 111.640545,26.720955 111.262545,26.090955 C110.812545,25.325955 110.173545,24.947955 109.345545,24.947955 C108.490545,24.947955 107.833545,25.325955 107.392545,26.090955 C107.005545,26.720955 106.825545,27.485955 106.825545,28.394955 C106.825545,29.276955 107.014545,30.032955 107.392545,30.653955 C107.851545,31.418955 108.499545,31.796955 109.327545,31.796955 C110.137545,31.796955 110.776545,31.409955 111.244545,30.635955 C111.631545,29.987955 111.829545,29.231955 111.829545,28.349955 M114.034545,28.304955 C114.034545,29.780955 113.611545,30.986955 112.774545,31.931955 C111.892545,32.903955 110.722545,33.389955 109.264545,33.389955 C107.860545,33.389955 106.735545,32.921955 105.898545,31.994955 C105.061545,31.067955 104.647545,29.888955 104.647545,28.466955 C104.647545,26.981955 105.079545,25.766955 105.934545,24.821955 C106.798545,23.876955 107.959545,23.399955 109.417545,23.399955 C110.821545,23.399955 111.955545,23.867955 112.810545,24.803955 C113.629545,25.703955 114.034545,26.873955 114.034545,28.304955" id="Fill-18" fill="#FFFFFF"></path>
                        <path d="M120.964455,25.4609775 C120.757455,25.4249775 120.532455,25.4069775 120.289455,25.4069775 C119.542455,25.4069775 118.957455,25.6859775 118.552455,26.2529775 C118.201455,26.7479775 118.021455,27.3869775 118.021455,28.1429775 L118.021455,33.1739775 L115.888455,33.1739775 L115.888455,26.6039775 C115.888455,25.4969775 115.870455,24.4889775 115.825455,23.5889775 L117.679455,23.5889775 L117.760455,25.4249775 L117.823455,25.4249775 C118.048455,24.7949775 118.399455,24.2819775 118.885455,23.9039775 C119.362455,23.5619775 119.875455,23.3909775 120.424455,23.3909775 C120.622455,23.3909775 120.802455,23.4089775 120.955455,23.4269775 L120.964455,25.4609775" id="Fill-20" fill="#FFFFFF"></path>
                        <path d="M128.452388,27.3779775 C128.470388,26.7479775 128.326388,26.1989775 128.038388,25.7399775 C127.669613,25.1459775 127.102388,24.8489775 126.346613,24.8489775 C125.653613,24.8489775 125.086613,25.1369775 124.654613,25.7129775 C124.303613,26.1719775 124.087613,26.7299775 124.024388,27.3689775 L128.452388,27.3779775 Z M130.486388,27.9269775 C130.486388,28.3049775 130.459613,28.6289775 130.405613,28.8899775 L124.015388,28.8899775 C124.042388,29.8349775 124.348388,30.5639775 124.942388,31.0589775 C125.482388,31.4999775 126.175388,31.7249775 127.030388,31.7249775 C127.975388,31.7249775 128.839613,31.5719775 129.613388,31.2749775 L129.946613,32.7509775 C129.037613,33.1469775 127.966388,33.3449775 126.733388,33.3449775 C125.248388,33.3449775 124.078613,32.9039775 123.232388,32.0309775 C122.386613,31.1579775 121.963612,29.9789775 121.963612,28.5119775 C121.963612,27.0719775 122.359387,25.8659775 123.151388,24.9029775 C123.979613,23.8769775 125.095613,23.3639775 126.499388,23.3639775 C127.876388,23.3639775 128.929388,23.8769775 129.631388,24.9029775 C130.198613,25.7309775 130.486388,26.7299775 130.486388,27.9269775 L130.486388,27.9269775 Z" id="Fill-22" fill="#FFFFFF"></path>
                        <path d="M55.255545,12.4019775 L54.706545,10.6919775 C54.652545,10.5209775 54.544545,10.1069775 54.373545,9.4589775 L54.355545,9.4589775 C54.283545,9.7379775 54.193545,10.1429775 54.040545,10.6919775 L53.500545,12.4019775 L55.255545,12.4019775 Z M57.172545,15.1289775 L56.056545,15.1289775 L55.444545,13.2119775 L53.320545,13.2119775 L52.735545,15.1289775 L51.655545,15.1289775 L53.752545,8.5949775 L55.048545,8.5949775 L57.172545,15.1289775 Z" id="Fill-24" fill="#FFFFFF"></path>
                        <path d="M62.4285225,10.413 L60.6465225,15.129 L59.6295225,15.129 L57.9015225,10.413 L59.0265225,10.413 L59.8275225,12.906 C59.9625225,13.32 60.0795225,13.716 60.1695225,14.094 L60.1965225,14.094 C60.2775225,13.752 60.3945225,13.356 60.5385225,12.906 L61.3305225,10.413 L62.4285225,10.413" id="Fill-26" fill="#FFFFFF"></path>
                        <path d="M66.0824775,12.78 C64.9214775,12.78 64.3364775,13.059 64.3364775,13.734 C64.3364775,14.229 64.6334775,14.472 65.0564775,14.472 C65.5874775,14.472 66.0824775,14.067 66.0824775,13.509 L66.0824775,12.78 Z M66.2264775,15.129 L66.1454775,14.589 L66.1184775,14.589 C65.7944775,15.021 65.3354775,15.237 64.7414775,15.237 C63.8954775,15.237 63.3014775,14.643 63.3014775,13.851 C63.3014775,12.69 64.3094775,12.087 66.0554775,12.087 L66.0554775,11.997 C66.0554775,11.376 65.7224775,11.07 65.0744775,11.07 C64.6064775,11.07 64.2014775,11.187 63.8414775,11.421 L63.6254775,10.737 C64.0574775,10.467 64.6064775,10.332 65.2454775,10.332 C66.4784775,10.332 67.0994775,10.98 67.0994775,12.285 L67.0994775,14.022 C67.0994775,14.499 67.1174775,14.868 67.1714775,15.147 L66.2264775,15.129 Z" id="Fill-28" fill="#FFFFFF"></path>
                        <path d="M68.9265,15.12 L69.9705,15.12 L69.9705,10.413 L68.9265,10.413 L68.9265,15.12 Z M69.4305,9.639 C69.0795,9.639 68.8095,9.369 68.8095,9.009 C68.8095,8.649 69.0885,8.388 69.4485,8.388 C69.8085,8.388 70.0965,8.649 70.0875,9.009 C70.0875,9.387 69.8175,9.639 69.4305,9.639 L69.4305,9.639 Z" id="Fill-30" fill="#FFFFFF"></path>
                        <polygon id="Fill-32" fill="#FFFFFF" points="71.8335 15.12 72.8775 15.12 72.8775 8.253 71.8335 8.253"></polygon>
                        <path d="M77.179545,12.78 C76.018545,12.78 75.433545,13.059 75.433545,13.734 C75.433545,14.229 75.730545,14.472 76.153545,14.472 C76.684545,14.472 77.179545,14.067 77.179545,13.509 L77.179545,12.78 Z M77.323545,15.129 L77.242545,14.589 L77.215545,14.589 C76.891545,15.021 76.432545,15.237 75.838545,15.237 C74.992545,15.237 74.398545,14.643 74.398545,13.851 C74.398545,12.69 75.406545,12.087 77.152545,12.087 L77.152545,11.997 C77.152545,11.376 76.819545,11.07 76.171545,11.07 C75.703545,11.07 75.298545,11.187 74.938545,11.421 L74.722545,10.728 C75.154545,10.458 75.703545,10.323 76.342545,10.323 C77.575545,10.323 78.196545,10.971 78.196545,12.276 L78.196545,14.013 C78.196545,14.49 78.214545,14.859 78.259545,15.138 L77.323545,15.138 L77.323545,15.129 Z" id="Fill-33" fill="#FFFFFF"></path>
                        <path d="M82.2285225,11.141955 C81.6255225,11.141955 81.0765225,11.663955 81.0765225,12.392955 L81.0765225,13.220955 C81.0765225,13.868955 81.5715225,14.399955 82.2105225,14.399955 C82.9935225,14.399955 83.4615225,13.760955 83.4615225,12.743955 C83.4615225,11.789955 82.9755225,11.141955 82.2285225,11.141955 M82.4445225,15.236955 C81.7785225,15.236955 81.2835225,14.957955 80.9595225,14.399955 L80.9415225,14.399955 L80.8785225,15.128955 L79.9875225,15.128955 C80.0145225,14.750955 80.0235225,14.327955 80.0235225,13.859955 L80.0235225,8.252955 L81.0765225,8.252955 L81.0765225,11.105955 L81.0945225,11.105955 C81.4095225,10.583955 81.9045225,10.322955 82.5975225,10.322955 C83.7315225,10.322955 84.5235225,11.294955 84.5235225,12.707955 C84.5235225,14.165955 83.6415225,15.236955 82.4445225,15.236955" id="Fill-34" fill="#FFFFFF"></path>
                        <polygon id="Fill-35" fill="#FFFFFF" points="86.0715 15.12 87.1155 15.12 87.1155 8.253 86.0715 8.253"></polygon>
                        <path d="M91.8584775,12.275955 C91.8584775,11.546955 91.4894775,11.033955 90.8234775,11.033955 C90.2204775,11.033955 89.7524775,11.555955 89.6804775,12.275955 L91.8584775,12.275955 Z M92.8124775,13.022955 L89.6714775,13.022955 C89.6894775,13.913955 90.2834775,14.417955 91.1564775,14.417955 C91.6244775,14.417955 92.0474775,14.336955 92.4254775,14.192955 L92.5874775,14.921955 C92.1464775,15.119955 91.6244775,15.209955 91.0124775,15.209955 C89.5364775,15.209955 88.6634775,14.282955 88.6634775,12.833955 C88.6634775,11.393955 89.5544775,10.304955 90.8954775,10.304955 C92.0924775,10.304955 92.8574775,11.195955 92.8574775,12.545955 C92.8574775,12.734955 92.8484775,12.896955 92.8124775,13.022955 L92.8124775,13.022955 Z" id="Fill-36" fill="#FFFFFF"></path>
                        <path d="M99.2025225,11.088 C98.4465225,11.088 97.9605225,11.799 97.9605225,12.78 C97.9605225,13.752 98.4555225,14.454 99.1935225,14.454 C99.9315225,14.454 100.426522,13.698 100.426522,12.753 C100.417522,11.799 99.9405225,11.088 99.2025225,11.088 M99.1575225,15.237 C97.7805225,15.237 96.8895225,14.211 96.8895225,12.816 C96.8895225,11.358 97.7985225,10.323 99.2385225,10.323 C100.597522,10.323 101.506522,11.304 101.506522,12.735 C101.506522,14.202 100.570522,15.237 99.1575225,15.237" id="Fill-37" fill="#FFFFFF"></path>
                        <path d="M107.131455,15.129 L106.087455,15.129 L106.087455,12.42 C106.087455,11.583 105.763455,11.169 105.133455,11.169 C104.512455,11.169 104.089455,11.7 104.089455,12.321 L104.089455,15.12 L103.045455,15.12 L103.045455,11.763 C103.045455,11.349 103.036455,10.899 103.009455,10.413 L103.927455,10.413 L103.972455,11.142 L103.999455,11.142 C104.278455,10.638 104.854455,10.314 105.493455,10.314 C106.483455,10.314 107.131455,11.07 107.131455,12.303 L107.131455,15.129" id="Fill-38" fill="#FFFFFF"></path>
                        <path d="M113.980545,11.205 L112.828545,11.205 L112.828545,13.491 C112.828545,14.076 113.035545,14.364 113.440545,14.364 C113.620545,14.364 113.782545,14.346 113.908545,14.319 L113.935545,15.111 C113.728545,15.192 113.458545,15.228 113.125545,15.228 C112.297545,15.228 111.811545,14.769 111.811545,13.581 L111.811545,11.205 L111.127545,11.205 L111.127545,10.422 L111.811545,10.422 L111.811545,9.558 L112.837545,9.243 L112.837545,10.413 L113.989545,10.413 L113.989545,11.205" id="Fill-39" fill="#FFFFFF"></path>
                        <path d="M119.524455,15.129 L118.480455,15.129 L118.480455,12.438 C118.480455,11.592 118.156455,11.169 117.526455,11.169 C116.986455,11.169 116.482455,11.538 116.482455,12.285 L116.482455,15.12 L115.438455,15.12 L115.438455,8.253 L116.482455,8.253 L116.482455,11.079 L116.500455,11.079 C116.833455,10.566 117.301455,10.314 117.913455,10.314 C118.912455,10.314 119.524455,11.088 119.524455,12.321 L119.524455,15.129" id="Fill-40" fill="#FFFFFF"></path>
                        <path d="M123.916477,12.275955 C123.916477,11.546955 123.547477,11.033955 122.881477,11.033955 C122.278478,11.033955 121.801478,11.555955 121.738478,12.275955 L123.916477,12.275955 Z M124.870477,13.022955 L121.729478,13.022955 C121.747478,13.913955 122.341477,14.417955 123.214477,14.417955 C123.682477,14.417955 124.105477,14.336955 124.483477,14.192955 L124.645477,14.921955 C124.204477,15.119955 123.682477,15.209955 123.070477,15.209955 C121.594477,15.209955 120.721478,14.282955 120.721478,12.833955 C120.721478,11.393955 121.612477,10.304955 122.953477,10.304955 C124.150477,10.304955 124.915477,11.195955 124.915477,12.545955 C124.915477,12.734955 124.906477,12.896955 124.870477,13.022955 L124.870477,13.022955 Z" id="Fill-41" fill="#FFFFFF"></path>
                    </g>
                </g>
            </g>
        </g>
    </g>
</svg>